HIERARCHY
ROOT joint_Root
{
	OFFSET 0.0 0.0 0.0
	CHANNELS 6 Xposition Yposition Zposition Zrotation Xrotation Yrotation 
	JOINT Hips
	{
		OFFSET 4.5925 91.4895 -427.239
		CHANNELS 6 Xposition Yposition Zposition Zrotation Xrotation Yrotation 
		JOINT Spine
		{
			OFFSET 15.7357 0.0 0.0
			CHANNELS 6 Xposition Yposition Zposition Zrotation Xrotation Yrotation 
			JOINT Chest
			{
				OFFSET 8.98455 -0.406207 0.0
				CHANNELS 6 Xposition Yposition Zposition Zrotation Xrotation Yrotation 
				JOINT Neck
				{
					OFFSET 16.3773 0.0 0.0
					CHANNELS 6 Xposition Yposition Zposition Zrotation Xrotation Yrotation 
					JOINT Head
					{
						OFFSET 6.45672 0.0 0.0
						CHANNELS 6 Xposition Yposition Zposition Zrotation Xrotation Yrotation 
						End Site
						{
							OFFSET 0.0 0.0 0.0
						}
					}
				}
				JOINT Shoulder_L
				{
					OFFSET 12.9942 -0.242716 4.98039
					CHANNELS 6 Xposition Yposition Zposition Zrotation Xrotation Yrotation 
					JOINT UpperArm_L
					{
						OFFSET 5.34809 0.0 0.0
						CHANNELS 6 Xposition Yposition Zposition Zrotation Xrotation Yrotation 
						JOINT LowerArm_L
						{
							OFFSET 24.3286 1.87007e-05 0.0
							CHANNELS 6 Xposition Yposition Zposition Zrotation Xrotation Yrotation 
							JOINT Hand_L
							{
								OFFSET 22.2916 0.0 0.0
								CHANNELS 6 Xposition Yposition Zposition Zrotation Xrotation Yrotation 
								End Site
								{
									OFFSET 0.0 0.0 0.0
								}
							}
						}
					}
				}
				JOINT Shoulder_R
				{
					OFFSET 12.9945 -0.242716 -4.98039
					CHANNELS 6 Xposition Yposition Zposition Zrotation Xrotation Yrotation 
					JOINT UpperArm_R
					{
						OFFSET -5.34813 0.0 0.0
						CHANNELS 6 Xposition Yposition Zposition Zrotation Xrotation Yrotation 
						JOINT LowerArm_R
						{
							OFFSET -24.3289 0.000322201 0.0
							CHANNELS 6 Xposition Yposition Zposition Zrotation Xrotation Yrotation 
							JOINT Hand_R
							{
								OFFSET -22.2915 -0.000108084 0.0
								CHANNELS 6 Xposition Yposition Zposition Zrotation Xrotation Yrotation 
								End Site
								{
									OFFSET 0.0 0.0 0.0
								}
							}
						}
					}
				}
			}
		}
		JOINT UpperLeg_L
		{
			OFFSET -2.19248 -6.46944 0.0
			CHANNELS 6 Xposition Yposition Zposition Zrotation Xrotation Yrotation 
			JOINT LowerLeg_L
			{
				OFFSET 39.0811 0.0 -1.23785e-05
				CHANNELS 6 Xposition Yposition Zposition Zrotation Xrotation Yrotation 
				JOINT Foot_L
				{
					OFFSET 40.9854 0.0 -1.26872e-05
					CHANNELS 6 Xposition Yposition Zposition Zrotation Xrotation Yrotation 
					JOINT Toes_L
					{
						OFFSET 11.7543 0.0 0.0
						CHANNELS 6 Xposition Yposition Zposition Zrotation Xrotation Yrotation 
						End Site
						{
							OFFSET 0.0 0.0 0.0
						}
					}
				}
			}
		}
		JOINT UpperLeg_R
		{
			OFFSET -2.19251 6.46944 0.0
			CHANNELS 6 Xposition Yposition Zposition Zrotation Xrotation Yrotation 
			JOINT LowerLeg_R
			{
				OFFSET -39.0811 -0.00228153 -0.0401928
				CHANNELS 6 Xposition Yposition Zposition Zrotation Xrotation Yrotation 
				JOINT Foot_R
				{
					OFFSET -40.9854 0.0 0.0
					CHANNELS 6 Xposition Yposition Zposition Zrotation Xrotation Yrotation 
					JOINT Toes_R
					{
						OFFSET -11.7543 0.0 0.0
						CHANNELS 6 Xposition Yposition Zposition Zrotation Xrotation Yrotation 
						End Site
						{
							OFFSET 0.0 0.0 0.0
						}
					}
				}
			}
		}
	}
}
MOTION
Frames:	4
Frame Time:	0.0333333
0.000000 0.000000 0.000000 0.000000 0.000000 -0.000000 88.632200 91.016500 178.509000 -88.583900 52.229800 -178.253000 15.735700 0.000005 -0.000001 96.736900 80.614400 -96.047400 8.984550 -0.406207 -0.000000 10.868400 2.204570 1.168590 16.377300 -0.000001 -0.000001 7.945680 5.559730 -0.677208 6.456720 -0.000001 -0.000000 1.665100 8.890870 -3.485660 12.994200 -0.242716 4.980390 -91.110700 3.401150 -71.902900 5.348090 -0.000007 -0.000001 -71.219700 23.157200 -6.633510 24.328600 0.000019 0.000005 9.700350 25.015200 -22.010800 22.291600 -0.000001 0.000005 12.435800 5.170240 3.453790 12.994500 -0.242716 -4.980390 88.589100 8.592030 -80.638600 -5.348130 -0.000001 -0.000004 -53.355500 23.981400 -21.965500 -24.328900 0.000322 -0.000009 1.932990 4.076440 -25.409200 -22.291500 -0.000108 -0.000004 16.810600 5.382220 -2.368650 -2.192480 -6.469440 -0.000000 -179.108000 -9.157100 -18.213700 39.081100 -0.000007 -0.000012 0.029456 -0.035133 39.975200 40.985400 -0.000006 -0.000013 -1.087170 2.841370 -65.189500 11.754300 -0.000000 0.000003 -0.000882 -0.013721 -17.134800 -2.192510 6.469440 -0.000001 177.817000 30.350600 170.883000 -39.081100 -0.002282 -0.040193 -0.181270 0.315426 30.334200 -40.985400 0.000008 0.000006 2.728190 9.490300 -68.005000 -11.754300 -0.000006 -0.000006 -0.002827 -0.038628 -18.144000
0.000000 0.000000 0.000000 0.000000 0.000000 -0.000000 89.668900 91.030600 178.153000 -88.103100 50.870400 -178.945000 15.735700 0.000005 -0.000001 97.917400 80.656900 -97.216900 8.984550 -0.406207 -0.000000 10.734500 2.573630 1.158540 16.377300 -0.000001 -0.000001 7.511910 5.380500 -0.450609 6.456720 -0.000001 -0.000000 1.661650 8.509190 -3.341170 12.994200 -0.242716 4.980390 -91.128800 3.451080 -71.875100 5.348090 -0.000007 -0.000001 -71.469600 22.934400 -6.059970 24.328600 0.000019 0.000005 9.761250 25.297900 -21.928800 22.291600 -0.000001 0.000005 12.297200 5.175660 3.322430 12.994500 -0.242716 -4.980390 88.656700 8.386690 -80.866600 -5.348130 -0.000001 -0.000004 -52.774500 22.769100 -22.524900 -24.328900 0.000322 -0.000009 1.926350 4.014920 -25.670600 -22.291500 -0.000108 -0.000004 17.254000 5.383300 -2.402220 -2.192480 -6.469440 -0.000000 179.124000 -13.091500 -18.196400 39.081100 -0.000007 -0.000012 0.023328 -0.036128 32.849100 40.985400 -0.000006 -0.000013 -1.617500 2.690660 -64.148500 11.754300 -0.000000 0.000003 -0.000740 -0.011644 -17.050500 -2.192510 6.469440 -0.000001 177.954000 31.945300 171.939000 -39.081100 -0.002282 -0.040193 -0.189146 0.337523 29.691200 -40.985400 0.000008 0.000006 2.683400 9.742930 -68.598700 -11.754300 -0.000006 -0.000006 -0.002654 -0.036619 -18.062200
0.000000 0.000000 0.000000 0.000000 0.000000 -0.000000 90.718100 90.951900 177.713000 -87.724300 49.640200 -179.654000 15.735700 0.000005 -0.000001 98.839100 80.739600 -98.198600 8.984550 -0.406207 -0.000000 10.528700 2.841660 1.018380 16.377300 -0.000001 -0.000001 6.842420 5.065250 -0.078730 6.456720 -0.000001 -0.000000 1.515850 7.923390 -2.943340 12.994200 -0.242716 4.980390 -91.141200 3.509730 -71.974800 5.348090 -0.000007 -0.000001 -71.814400 22.496500 -5.578390 24.328600 0.000019 0.000005 9.772530 25.375500 -21.895400 22.291600 -0.000001 0.000005 12.204100 5.181190 3.186340 12.994500 -0.242716 -4.980390 88.708100 8.310040 -81.131400 -5.348130 -0.000001 -0.000004 -52.159500 22.065000 -22.875600 -24.328900 0.000322 -0.000009 1.980030 4.062990 -26.021700 -22.291500 -0.000108 -0.000004 17.506000 5.387620 -2.539190 -2.192480 -6.469440 -0.000000 175.702000 -17.277800 -20.356600 39.081100 -0.000007 -0.000012 0.249158 -0.449656 28.991600 40.985400 -0.000006 -0.000013 6.912880 0.227622 -61.817700 11.754300 -0.000000 0.000003 -0.000500 -0.008030 -16.903600 -2.192510 6.469440 -0.000001 178.115000 33.137700 172.664000 -39.081100 -0.002282 -0.040193 -0.192187 0.345961 29.469400 -40.985400 0.000008 0.000006 2.556180 9.718520 -69.396300 -11.754300 -0.000006 -0.000006 -0.002192 -0.031089 -17.837300
0.000000 0.000000 0.000000 0.000000 0.000000 -0.000000 91.831100 90.760500 177.110000 -87.828800 48.632800 179.935000 15.735700 0.000005 -0.000001 98.992000 80.896500 -98.576800 8.984550 -0.406207 -0.000000 10.216200 2.835920 0.576351 16.377300 -0.000001 -0.000001 6.135320 4.662200 0.335100 6.456720 -0.000001 -0.000000 1.149060 7.472100 -2.488020 12.994200 -0.242716 4.980390 -91.129600 3.522850 -72.209000 5.348090 -0.000007 -0.000001 -72.222200 21.973500 -5.104950 24.328600 0.000019 0.000005 9.697890 25.339000 -21.767400 22.291600 -0.000001 0.000005 12.196500 5.181610 3.176320 12.994500 -0.242716 -4.980390 88.770600 8.247850 -81.491900 -5.348130 -0.000001 -0.000004 -51.681600 22.085100 -23.035800 -24.328900 0.000322 -0.000009 1.918680 3.846750 -26.548000 -22.291500 -0.000108 -0.000004 17.720000 5.393000 -2.711270 -2.192480 -6.469440 -0.000000 173.519000 -20.938200 -21.806100 39.081100 -0.000007 -0.000012 0.078876 -0.161590 26.018300 40.985400 -0.000006 -0.000013 8.619980 -1.966530 -55.934800 11.754300 -0.000000 0.000003 -0.000000 -0.000002 -16.577600 -2.192510 6.469440 -0.000001 177.969000 33.596500 173.052000 -39.081100 -0.002282 -0.040193 -0.217972 0.384856 29.897100 -40.985400 0.000008 0.000006 2.250500 9.225580 -70.550500 -11.754300 -0.000006 -0.000006 -0.001938 -0.027932 -17.708900
